<svg width="801" height="801" fill="none" xmlns="http://www.w3.org/2000/svg"><path d="M797.6 742.5L537.9 482.8C578.2 430.7 600 367 600 300c0-80.2-31.3-155.4-87.9-212.1C455.5 31.2 380.1 0 300 0S144.5 31.3 87.9 87.9C31.2 144.5 0 219.8 0 300c0 80.1 31.3 155.5 87.9 212.1C144.5 568.8 219.8 600 300 600c67 0 130.6-21.8 182.7-62l259.7 259.6a8.206 8.206 0 0011.6 0l43.6-43.5a8.206 8.206 0 000-11.6zM458.4 458.4C416 500.7 359.8 524 300 524c-59.8 0-116-23.3-158.4-65.6C99.3 416 76 359.8 76 300c0-59.8 23.3-116.1 65.6-158.4C184 99.3 240.2 76 300 76c59.8 0 116.1 23.2 158.4 65.6C500.7 184 524 240.2 524 300c0 59.8-23.3 116.1-65.6 158.4z" fill="#000"/></svg>